# xmcd CD database file
#
# Track frame offsets:
#	150
#	15920
#	43487
#	69257
#	88622
#	103195
#	117070
#	135625
#	151252
#	163992
#	179187
#	199425
#	217027
#
# Disc length: 3133 seconds
#
# Revision: 0
# Processed by: cddbd v1.5.1PL0 Copyright (c) Steve Scherf et al.
# Submitted via: CDex 1.51
#
DISCID=be0c3b0d
DTITLE=Various Artist - Blues from the Summit
DYEAR=1900
DGENRE=Blues
TTITLE0=Mighty Sam McClain_Sledgehammer Soul and Down Home Blues
TTITLE1=The Renee-Randall Blues Band_Come on in this House/Mercy Mercy
TTITLE2=Shirley Lewis Experee-ance_Moanin'
TTITLE3=Jimmy and the Soulcats_Let Me Up
TTITLE4=Vykki Vox_Never Enough
TTITLE5=The Doc Johson Blues Band_Doc Drops In
TTITLE6=The Rockin' Jake Band_Paradise Ride
TTITLE7=T.J. Wheeler and The Smokers_Let Me Be Me
TTITLE8=Charlie Archer_Stone Pony
TTITLE9=Bob Halperin_John the Revelator
TTITLE10=Roll and Tumble_When I've Been Drinkin'
TTITLE11=The Brinkley Blues Band_Changed by the Blues
TTITLE12=Lillian Buckley_When in the Granite State
EXTD=
EXTT0=
EXTT1=
EXTT2=
EXTT3=
EXTT4=
EXTT5=
EXTT6=
EXTT7=
EXTT8=
EXTT9=
EXTT10=
EXTT11=
EXTT12=
PLAYORDER=
